<svg preserveAspectRatio="none" width="100%" height="100%" overflow="visible" style="display: block;" viewBox="0 0 24 24" fill="none" xmlns="http://www.w3.org/2000/svg">
<g id="Tools wrench">
<path id="Vector" d="M19.275 19.8L19.975 19.1L12 11.125C12.3167 10.7417 12.5627 10.3083 12.738 9.825C12.9127 9.34167 13 8.83333 13 8.3C13 7.05 12.5627 5.99167 11.688 5.125C10.8127 4.25833 9.75 3.825 8.5 3.825H8.25L11.325 6.9L7.075 11.125L4 8.05V8.325C4 9.575 4.43733 10.6333 5.312 11.5C6.18733 12.3667 7.25 12.8 8.5 12.8C9.03333 12.8 9.53767 12.7123 10.013 12.537C10.4877 12.3623 10.9167 12.1167 11.3 11.8L19.275 19.8ZM5.375 3.25C5.375 2.76667 5.63333 2.404 6.15 2.162C6.66667 1.92067 7.45 1.8 8.5 1.8C10.3167 1.8 11.8543 2.429 13.113 3.687C14.371 4.94567 15 6.48333 15 8.3C15 8.73333 14.9583 9.16233 14.875 9.587C14.7917 10.0123 14.6667 10.4167 14.5 10.8L21.375 17.675C21.7583 18.0583 21.9543 18.529 21.963 19.087C21.971 19.6457 21.7833 20.1167 21.4 20.5L20.725 21.2C20.3417 21.6 19.8707 21.804 19.312 21.812C18.754 21.8207 18.275 21.625 17.875 21.225L10.975 14.325C10.5917 14.4917 10.1917 14.6127 9.775 14.688C9.35833 14.7627 8.94167 14.8 8.525 14.8C6.70833 14.8 5.171 14.1707 3.913 12.912C2.65433 11.654 2.025 10.1167 2.025 8.3C2.025 7.23333 2.14167 6.446 2.375 5.938C2.60833 5.42933 2.96667 5.175 3.45 5.175C3.61667 5.175 3.771 5.204 3.913 5.262C4.05433 5.32067 4.18333 5.40833 4.3 5.525L7.075 8.3L8.5 6.9L5.725 4.125C5.60833 4.00833 5.521 3.875 5.463 3.725C5.40433 3.575 5.375 3.41667 5.375 3.25Z" fill="var(--fill-0, black)"/>
</g>
</svg>
